<svg xmlns="http://www.w3.org/2000/svg" viewBox="0 0 1471.98 1030.12">
  <defs>
    <style>
      .cls-1 {
        fill: #ff960b;
      }

      .cls-2 {
        fill: #ffd561;
      }

      .cls-3 {
        font-size: 162.21px;
        fill: #ffc200;
        font-family: ErasITC-Light, Eras Light ITC;
      }
    </style>
  </defs>
  <title>logo</title>
  <g id="sun">
    <path class="cls-1" d="M783.64,885.2H384.86c-47,0-82.31-42.87-73.51-89.08,42.26-221.76,239-391.6,472.29-391.6s430,169.84,472.29,391.6c8.81,46.21-26.46,89.08-73.51,89.08Z" transform="translate(-49.18 -23.26)"/>
  </g>
  <g id="rays">
    <path class="cls-1" d="M833.47,374.73,793.93,165.61c-1.59-8.43-12.38-8.62-14.22-.26L733.87,373.76c-1.26,5.75,3.26,11,8.5,9.84,15-3.3,44.17-7,82.62.72C830.09,385.35,834.53,380.36,833.47,374.73Z" transform="translate(-49.18 -23.26)"/>
    <path class="cls-1" d="M1124.55,494.59,1200,300.12c3.22-8.31-5.93-15.66-12.06-9.68l-144.1,140.37c-4.22,4.11-3.17,11.62,1.94,14.13,14,6.91,39.35,22.2,66.28,52.27C1115.87,501.48,1122.39,500.15,1124.55,494.59Z" transform="translate(-49.18 -23.26)"/>
    <path class="cls-1" d="M1281.34,770.8,1450.43,661c6.73-4.37,3.71-15.61-4-14.81l-194,20.08c-5.29.55-8.44,6.92-5.9,12,7.34,14.61,19.33,43.95,24.12,86.84C1271.27,770.73,1276.84,773.72,1281.34,770.8Z" transform="translate(-49.18 -23.26)"/>
    <path class="cls-1" d="M433.13,504.91,357.7,310.43c-3.22-8.31,5.93-15.66,12.06-9.68l144.1,140.37c4.22,4.11,3.17,11.62-1.94,14.13-14,6.91-39.35,22.2-66.28,52.27C441.81,511.79,435.29,510.46,433.13,504.91Z" transform="translate(-49.18 -23.26)"/>
    <path class="cls-1" d="M276.34,781.12,107.26,671.35c-6.73-4.37-3.71-15.61,4-14.81l194,20.08c5.29.55,8.44,6.92,5.9,12-7.34,14.61-19.33,43.95-24.12,86.84C286.42,781,280.84,784,276.34,781.12Z" transform="translate(-49.18 -23.26)"/>
    <path class="cls-1" d="M379.32,553.69,49.18,344.46,340.5,615.78S340.58,579.17,379.32,553.69Z" transform="translate(-49.18 -23.26)"/>
    <path class="cls-1" d="M660.6,389.48,524,23.26l68.13,392.22S614.34,386.36,660.6,389.48Z" transform="translate(-49.18 -23.26)"/>
    <path class="cls-1" d="M1179.93,541.33l341.22-190.64L1215.26,605.47S1217.21,568.91,1179.93,541.33Z" transform="translate(-49.18 -23.26)"/>
    <path class="cls-1" d="M902.52,391.07,1039.11,24.85,971,417.07S948.78,388,902.52,391.07Z" transform="translate(-49.18 -23.26)"/>
  </g>
  <g id="cn">
    <path class="cls-2" d="M785.44,252.73v16.6h3.43v51.82h3.52v79.49h4.53s7,8.55,0,15.6h-4.17v79.49h3.17v14.59H806s4,8,0,12.07c0,0,5.09,6.54,1.79,8.55H813s4,19.62,0,25.16h-3.52s3.52,11.07,0,13.08-1.51,4-14.09,7.55c0,0-1,230.92,12.58,309.41H781.31" transform="translate(-49.18 -23.26)"/>
    <path class="cls-2" d="M786.25,252.73v16.6h-3.43v51.82H779.3v79.49h-4.53s-7,8.55,0,15.6h4.17v79.49h-3.17v14.59H765.72s-4,8,0,12.07c0,0-5.09,6.54-1.79,8.55h-5.25s-4,19.62,0,25.16h3.52s-3.52,11.07,0,13.08,1.51,4,14.09,7.55c0,0,1,230.92-12.58,309.41h26.66" transform="translate(-49.18 -23.26)"/>
  </g>
  <g id="falls">
    <path class="cls-2" d="M1245.62,792.17s-75.53-217.08-148.29-237.36-133.59,39.36-151.48,78.72,3.58,147.9-17.89,158.64c0,0-47.71,51.29-54.87,79.91,0,0,292.35,9.38,327.55,0S1249.92,804,1245.62,792.17Z" transform="translate(-49.18 -23.26)"/>
    <path class="cls-1" d="M1226.93,704.13c-2,4.63-4.11,9-6.28,13.17-1.06,2.14-2.2,4.17-3.28,6.25l-3.33,6.09-3.37,5.95c-1.09,2-2.28,3.88-3.37,5.84l-6.67,11.41c-4.39,7.49-8.72,14.75-12.57,21.83-1,1.77-1.88,3.51-2.82,5.25l-1.31,2.59-.66,1.28-.59,1.28-1.22,2.52-1.08,2.48c-.41.82-.69,1.62-1,2.42s-.68,1.61-.92,2.37l-.85,2.3c-.21.73-.42,1.47-.66,2.19l-.19.54-.12.51-.26,1-.28,1c0,.31-.1.62-.16.93l-.2.93-.06.23a2.26,2.26,0,0,0-.06.36l-.16,1.09c-.21,1.45-.41,2.92-.7,4.35l-.93,4.26c-.34,1.4-.77,2.77-1.16,4.14a90.38,90.38,0,0,1-15,28.84,104.8,104.8,0,0,1-21.92,21.14,101,101,0,0,1-12.78,7.76,69.1,69.1,0,0,1-14.05,5.5l-1.51-1.85a163.18,163.18,0,0,0,18.46-19.66,146.91,146.91,0,0,0,15.06-22.25,100.52,100.52,0,0,0,9.74-24.73l.69-3.24.53-3.26c.28-2.19.46-4.3.79-6.74a62,62,0,0,1,3.49-13.69,98.38,98.38,0,0,1,5.87-12.65l.82-1.53.88-1.49,1.76-3c1.25-1.94,2.43-3.92,3.75-5.81A211.73,211.73,0,0,1,1186,740.31q9.06-10.32,18.92-19.84c6.62-6.3,13.39-12.39,20.49-18.18Z" transform="translate(-49.18 -23.26)"/>
    <path class="cls-1" d="M1189.84,640.63c-11.72,8.76-22.88,17.38-32.72,26.59-.6.59-1.23,1.14-1.84,1.71l-1.79,1.73c-1.2,1.14-2.34,2.33-3.47,3.51s-2.22,2.36-3.32,3.53-2.09,2.4-3.13,3.58-1.92,2.45-2.9,3.63-1.85,2.41-2.67,3.64l-1.22,1.84-.61.91-.54.93c-.7,1.25-1.5,2.42-2.1,3.65l-1,1.81-.81,1.82c-.25.61-.58,1.19-.77,1.8l-.63,1.8c-.49,1.18-.73,2.36-1.12,3.51a12.23,12.23,0,0,0-.4,1.73l-.36,1.71c-.13,1.15-.26,2.27-.37,3.38.06,1.13-.14,2.21-.09,3.32l.39,9.44c.06,1.89.13,3.77.09,5.67s0,3.78-.08,5.68-.09,3.79-.18,5.69-.17,3.8-.29,5.71c-.59,7.61-1.49,15.24-2.81,22.89a203.75,203.75,0,0,1-5.61,22.89q-1.86,5.69-4.14,11.36a111.43,111.43,0,0,1-5.19,11.23,99.5,99.5,0,0,1-14.77,21.37,77,77,0,0,1-10.27,9.39c-1,.7-1.91,1.41-2.93,2.06s-2,1.31-3.07,1.93l-3.16,1.75-3.26,1.58a58.35,58.35,0,0,1-13.65,4.22,63.79,63.79,0,0,1-13.3,1,99.32,99.32,0,0,1-11.77-1l-5.14-.75-4.48-.59c-1.35-.17-2.57-.28-3.6-.33a22.39,22.39,0,0,0-2.6.07,5,5,0,0,0-2.4.84,10.71,10.71,0,0,0-1.3,1c-.57.64-1.2,1.41-1.8,2.1q-3.62,4.29-7.71,8.28c-1.39,1.31-2.81,2.61-4.34,3.81-.78.6-1.56,1.19-2.41,1.73-.42.27-.87.53-1.33.78-.25.12-.46.24-.74.36l-.41.17-.23.09-.38.12-.79-2.25c-.14.06,0,0-.06,0l.08-.05.19-.15c.13-.1.28-.25.42-.37.28-.28.56-.57.84-.89.55-.62,1.07-1.31,1.58-2q1.51-2.1,2.87-4.34c1.82-3,3.49-6.08,5.1-9.2l1.21-2.36a21.06,21.06,0,0,1,1.49-2.46,15.82,15.82,0,0,1,4.13-4.12,19.78,19.78,0,0,1,5.23-2.5,35.12,35.12,0,0,1,5.49-1.14c3.65-.45,7.24-.5,10.77-.61s7-.24,10.45-.62a50.36,50.36,0,0,0,19.46-5.81A53.13,53.13,0,0,0,1079,825.29a86,86,0,0,0,10.76-17.63c5.87-12.6,9.51-26.24,12-40a271.35,271.35,0,0,0,4-41.9c.06-1.76,0-3.52.08-5.27,0-.86,0-1.79.09-2.71L1106,715a24.5,24.5,0,0,1,.32-2.75l.4-2.74c.39-1.8.82-3.6,1.29-5.38a63.45,63.45,0,0,1,9.9-19.51,93.63,93.63,0,0,1,14.86-15.78,141.11,141.11,0,0,1,17.46-12.57,194.08,194.08,0,0,1,38.85-17.9Z" transform="translate(-49.18 -23.26)"/>
    <path class="cls-1" d="M1148.47,578.61a291.08,291.08,0,0,0-36.19,33.29c-10.52,11.74-19.41,24.16-25.15,37.1a87.54,87.54,0,0,0-3.75,9.74c-.49,1.64-1.11,3.23-1.48,4.89l-.65,2.45c-.24.81-.34,1.65-.52,2.47l-.5,2.46c-.16.82-.23,1.66-.35,2.48s-.23,1.65-.37,2.46c-.07.36-.14,1-.21,1.45l-.21,1.53-1.65,12.29c-.51,4.11-1.19,8.21-1.79,12.34L1073.77,716c-1.41,8.29-2.9,16.67-4.62,25.18-.93,4.24-1.92,8.51-3,12.85s-2.27,8.72-3.72,13.16-3.1,8.94-5.13,13.57a86.3,86.3,0,0,1-7.61,14.15,62,62,0,0,1-12.65,14c-1.4,1.05-2.79,2.1-4.3,3a41.83,41.83,0,0,1-4.75,2.57q-1.23.57-2.48,1.11l-1.72.63c-1.14.43-2.24.79-3.35,1.17-4.42,1.47-8.62,2.75-12.76,3.86l-12.15,3.15c-3.94,1.06-7.86,2-11.65,3s-7.47,2.12-11,3.23-6.94,2.42-10.11,3.76a46.55,46.55,0,0,0-8.46,4.58c-.59.42-1.22.84-1.73,1.29a18.79,18.79,0,0,0-1.55,1.37,7.72,7.72,0,0,0-.69.72c-.21.25-.48.49-.66.75a12.74,12.74,0,0,0-1.36,2c-2.15,3.78-4.35,7.53-6.74,11.17a129.23,129.23,0,0,1-16.08,20.62l-2.08-1.26a189.26,189.26,0,0,0,10.32-22.53c1.5-3.87,2.95-7.75,4.29-11.68.31-1,.75-2,1.16-3,.2-.52.49-1,.73-1.5a15.26,15.26,0,0,1,.79-1.46,28.32,28.32,0,0,1,1.84-2.75,32,32,0,0,1,2.08-2.55,51.14,51.14,0,0,1,9.92-8.3,97.55,97.55,0,0,1,11.11-6.25A249.28,249.28,0,0,1,988.92,806c7.84-2.88,15.74-5.57,23.37-8.66.95-.39,1.9-.78,2.84-1.19l1.4-.61,1.28-.65a23.52,23.52,0,0,0,2.46-1.46c.8-.53,1.54-1.15,2.3-1.73a38.28,38.28,0,0,0,7.5-9,72.13,72.13,0,0,0,5.37-10.83c1.53-3.77,2.84-7.66,4-11.61,2.36-7.89,4.22-16,5.91-24.08,3.43-16.24,6.25-32.68,9.3-49.09l2.31-12.31c.2-1,.38-2,.6-3.08l.7-3.12c.25-1,.44-2.09.74-3.11l.9-3.07a102.49,102.49,0,0,1,10.31-23.3,122.53,122.53,0,0,1,15.24-20.3,156.22,156.22,0,0,1,18.59-17.15A189.46,189.46,0,0,1,1125,587.51a173.36,173.36,0,0,1,22.61-11.17Z" transform="translate(-49.18 -23.26)"/>
    <path class="cls-1" d="M1055.08,538.83l-1.69,2.67-1.71,2.64q-1.68,2.66-3.3,5.35c-2.21,3.53-4.35,7.08-6.48,10.6s-4.21,7-6.2,10.59-4,7-5.91,10.6A325.29,325.29,0,0,0,1010,623.88l-1.9,5.34c-.6,1.78-1.14,3.58-1.71,5.35l-1.6,5.32c-.53,1.77-.93,3.55-1.4,5.32a146.44,146.44,0,0,0-3.61,21.07l-.24,2.62-.23,2.93q-.26,2.93-.44,5.86t-.35,5.87q-.17,2.93-.26,5.89c-.44,7.86-.68,15.76-.86,24-.37,8.19-.55,16.67-1.51,26a129.81,129.81,0,0,1-2.42,14.53,81.12,81.12,0,0,1-5,15.29,78.19,78.19,0,0,1-8.19,14.27A86,86,0,0,1,970,795.22l-2.75,2.51c-.91.85-1.84,1.63-2.77,2.39l-2.79,2.3c-.93.72-1.88,1.43-2.84,2.12l-1.43,1-1.43,1-2.87,1.95-4.56,3c-2.89,2.1-5.89,4.14-8.67,6.48s-5.52,4.78-8.26,7.3a155.55,155.55,0,0,0-15.15,16.94,206.43,206.43,0,0,0-24.68,41.47l-2.37-.29a112.57,112.57,0,0,1,2.4-12.31q1.5-6.07,3.5-12a155.76,155.76,0,0,1,9.82-23,142.06,142.06,0,0,1,13.64-21,132.83,132.83,0,0,1,17.34-18.18c1.59-1.36,3.25-2.68,4.85-4s3.2-2.53,4.7-3.89a112.88,112.88,0,0,0,8.8-8.34,63.84,63.84,0,0,0,13-19.94,81.58,81.58,0,0,0,5-23.48c.69-8.11.85-16.35,1.1-24.61A459.51,459.51,0,0,1,977.35,663a159.87,159.87,0,0,1,15.39-47.59,247.18,247.18,0,0,1,26.79-42c5.15-6.52,10.53-12.84,16.2-18.91s11.5-11.94,17.77-17.46Z" transform="translate(-49.18 -23.26)"/>
  </g>
  <g id="Layer_5" data-name="Layer 5">
    <path class="cls-2" d="M516.47,522.61s91.66,33,116.88,65.91c32.8,42.78-4.77,82,14.31,91.53s65.6,37.57,65.6,46.81-15.51,65.2-40.55,65.25c0,0,2.39,31.06-39.36,33.45s-71.57-31-79.91-23.86,38.17,29.82,45.32,44.13-26.24,0-26.24,0,23.86,8.34,28.63,30.41H436.75s-61,7.75-70.57,0-74-38.17-37-118.38S434.18,523.8,516.47,522.61Z" transform="translate(-49.18 -23.26)"/>
    <path class="cls-2" d="M633.36,588.52s16.7-31.68,7.16-50.59S620.23,492.79,625,490.4s-25,34.23-17.89,47.53-17.89-14.56-10.73-38.2-39.36-26.45-29.82,0-4.77,2.17-19.08,0-70.59,35-70.59,35" transform="translate(-49.18 -23.26)"/>
    <path class="cls-1" d="M618.61,581.44a39.14,39.14,0,0,1-.92-7.67,55.56,55.56,0,0,1,.26-6.94,67,67,0,0,1,2.57-12.63A87.7,87.7,0,0,1,625,542.67c.88-1.87,1.81-3.72,2.77-5.63a44.14,44.14,0,0,0,2.8-6.49l.88-.37a19.57,19.57,0,0,1,1.47,6.73,40.55,40.55,0,0,1-.31,6.82,84.82,84.82,0,0,1-2.91,13.22q-2,6.45-4.53,12.7-1.29,3.11-2.68,6.18c-1,2-1.94,4-3,6Z" transform="translate(-49.18 -23.26)"/>
    <path class="cls-1" d="M593,574.29c-.34-3.65-.47-7-.74-10.19a59.37,59.37,0,0,0-1.18-8.67,17.9,17.9,0,0,0-.5-1.79c-.11-.27-.18-.55-.27-.81l-.3-.74a8.43,8.43,0,0,0-1.32-2.14,2.7,2.7,0,0,1-.33-.34c-.1-.11-.22-.19-.32-.3s-.24-.16-.33-.25l-.15-.13-.36-.34-.72-.7a28.23,28.23,0,0,1-4.09-5.75,42.35,42.35,0,0,1-2.35-5.61,49.82,49.82,0,0,1-1.38-5.47,48.88,48.88,0,0,1-.71-5.37,51.88,51.88,0,0,1-.19-5.3A57.81,57.81,0,0,1,578.84,510a51.2,51.2,0,0,1,1.33-5.14,33.58,33.58,0,0,1,2-5.07l1,0c.16,3.25.46,6.52.83,9.76s.75,6.49,1.29,9.7a94.56,94.56,0,0,0,2.08,9.52,44.74,44.74,0,0,0,3.44,9,19.63,19.63,0,0,0,2.6,3.88l.81.86c.3.32.62.63.89,1s.55.69.79,1.05.47.74.68,1.12a20,20,0,0,1,2.14,9.93,48.84,48.84,0,0,1-4.86,19.22Z" transform="translate(-49.18 -23.26)"/>
    <path class="cls-1" d="M499.9,551.18a105.24,105.24,0,0,0-9.89,5.19q-4.82,2.78-9.37,5.93a137.13,137.13,0,0,0-17,13.79,122.12,122.12,0,0,0-14.41,16.05c-1.11,1.4-2.08,2.9-3.12,4.35s-2,2.94-3,4.44c-.47.75-1,1.49-1.42,2.25l-1.32,2.31-1.32,2.31-1.19,2.37-1.2,2.37c-.4.79-.72,1.61-1.09,2.42-.69,1.63-1.48,3.2-2.06,4.87s-1.33,3.26-1.92,4.93l-1.7,5a138.76,138.76,0,0,0-4.57,20.65c-.87,6.86-1.64,14.49-2.36,21.88l-2.1,22.33L418.48,717l-1.27,11.23c-.44,3.75-.87,7.5-1.46,11.26-1.12,7.51-2.33,15-3.9,22.61-.8,3.78-1.63,7.58-2.68,11.35s-2.25,7.54-3.71,11.28a92.08,92.08,0,0,1-5.06,11A56.35,56.35,0,0,1,393.33,806c-.66.81-1.4,1.55-2.13,2.31s-1.48,1.48-2.26,2.18l-2.07,1.87-.92.81c-.3.28-.56.58-.85.87a32.37,32.37,0,0,0-5.67,7.92c-3.12,5.84-4.19,12.89-4,20a62.54,62.54,0,0,0,1.31,10.8,70.91,70.91,0,0,0,3,10.69l-.84.46a65.74,65.74,0,0,1-4.28-10.49,64.79,64.79,0,0,1-2.46-11.06c-1-7.48-.45-15.34,2.51-22.42a36.7,36.7,0,0,1,6-9.73c.31-.36.61-.74.93-1.09l1-1,2-2c.65-.65,1.3-1.31,1.89-2s1.22-1.38,1.77-2.13a55.17,55.17,0,0,0,5.88-9.38,84.12,84.12,0,0,0,4.21-10.3,155.3,155.3,0,0,0,5.31-21.71c1.32-7.35,2.32-14.77,3.22-22.2,1.77-14.87,3.14-29.79,4.61-44.71l2.32-22.37c.83-7.46,1.56-14.9,2.71-22.37A147.3,147.3,0,0,1,422,627a124.06,124.06,0,0,1,9.31-20.6,122.36,122.36,0,0,1,29.06-34.34A132.54,132.54,0,0,1,479,559.41a113.37,113.37,0,0,1,20.63-9.15Z" transform="translate(-49.18 -23.26)"/>
    <path class="cls-1" d="M405.35,639.75c-2.72,8.08-5.68,15.91-8.35,23.82-1.41,3.92-2.81,7.82-4.1,11.76l-2,5.87L389,687.07c-5.09,15.62-9.58,31.26-12.37,46.89-.68,3.9-1.26,7.81-1.62,11.69s-.57,7.75-.68,11.59l-.22,6.58c0,1.1-.07,2.21-.13,3.31s-.24,2.21-.35,3.32c-.27,2.21-.45,4.41-.81,6.61l-1.3,6.56a30.81,30.81,0,0,1-.82,3.25l-.93,3.22a56.64,56.64,0,0,1-2.23,6.33c-.75,2.1-1.79,4.11-2.74,6.13l-.72,1.51c-.25.5-.55,1-.82,1.47-.56,1-1.09,2-1.68,2.9a60.25,60.25,0,0,1-8.3,10.46,36.37,36.37,0,0,1-10.71,7.67l-.51-.81a30.43,30.43,0,0,0,4.6-4.08l1.06-1.13,1-1.19a31,31,0,0,0,1.91-2.44c.59-.85,1.25-1.65,1.78-2.54l1.64-2.64c.55-.88,1-1.82,1.48-2.73s1-1.81,1.39-2.78a89.31,89.31,0,0,0,7.05-23.8c1.36-8.22,1.43-16.57,1.31-24.9a129.62,129.62,0,0,1,1.92-25.19c3-16.59,8.3-32.64,14.69-48.15q4.81-11.64,10.45-22.9c3.8-7.48,7.8-14.85,12.17-22Z" transform="translate(-49.18 -23.26)"/>
    <path class="cls-1" d="M583.06,588.78a21.44,21.44,0,0,1-1.15,2.53c-.41.84-.89,1.61-1.34,2.43s-1,1.53-1.53,2.31-1.06,1.52-1.63,2.25-1.12,1.5-1.73,2.18l-1.87,2.05c-1.23,1.42-2.62,2.63-3.95,4a89.38,89.38,0,0,1-8.85,6.89,47.11,47.11,0,0,1-4.77,3l-2.44,1.42c-.81.48-1.68.83-2.52,1.25-1.69.8-3.38,1.64-5.11,2.39l-5.26,2a48.36,48.36,0,0,1-5.35,1.72c-1.8.5-3.6,1-5.42,1.51s-3.66.73-5.49,1.1-3.67.74-5.51.93l-10.63,1.15c-12.54,1.2-24.27,5.23-34.2,12.89l-1.85,1.46-1.81,1.54c-1.17,1.07-2.33,2.17-3.48,3.31a66.52,66.52,0,0,0-6.4,7.46,96.82,96.82,0,0,0-10.64,17.67l-.94-.15a68.56,68.56,0,0,1,19.92-36.87,60.23,60.23,0,0,1,17.81-11.6,70,70,0,0,1,20.62-5.2l10.48-1c1.74-.12,3.46-.44,5.18-.72l5.17-.84a118.5,118.5,0,0,0,20.06-5.85,94.36,94.36,0,0,0,18.48-9.69c1.41-1,2.9-1.94,4.23-3.06l2.05-1.62c.67-.55,1.31-1.15,2-1.72a51.14,51.14,0,0,0,7.1-7.59Z" transform="translate(-49.18 -23.26)"/>
    <path class="cls-1" d="M466.25,701.11c2.51,7.7,4.6,15.37,6.92,22.94,2.14,7.6,4.49,15.1,6.78,22.53s4.76,14.73,7.46,21.82c1.39,3.51,2.72,7,4.31,10.39.72,1.72,1.55,3.33,2.33,5s1.65,3.24,2.58,4.73a53.55,53.55,0,0,0,5.75,8.49,20.08,20.08,0,0,0,1.57,1.82l.81.84c.29.29.48.53.91.93l2.26,2.16c.74.73,1.46,1.48,2.19,2.22,2.87,3,5.66,6.06,8.26,9.26s5.1,6.46,7.47,9.81a167.5,167.5,0,0,1,12.5,21.07c.87,1.85,1.73,3.7,2.55,5.57s1.63,3.74,2.31,5.68,1.36,3.87,1.94,5.85c.27,1,.51,2,.73,3a11,11,0,0,1,.29,3.26h-1a10.91,10.91,0,0,0-.83-2.65q-.58-1.35-1.24-2.67c-.88-1.76-1.82-3.49-2.81-5.2-2-3.42-4.09-6.77-6.28-10.05a229.5,229.5,0,0,0-14.1-19.06,202.85,202.85,0,0,0-16.08-17.39q-2.14-2-4.35-4a49.3,49.3,0,0,1-4.24-4.32,60.86,60.86,0,0,1-6.92-9.87c-.51-.86-1-1.74-1.45-2.64L485.54,788c-.83-1.82-1.72-3.61-2.47-5.46-1.6-3.66-2.93-7.42-4.24-11.19-2.51-7.56-4.6-15.26-6.35-23s-3.21-15.58-4.43-23.43-2.13-15.75-2.76-23.68Z" transform="translate(-49.18 -23.26)"/>
    <path class="cls-1" d="M490.56,617.64c-.9-.52-1.71-1.09-2.59-1.6s-1.64-1.09-2.46-1.61l-4.78-3.1c-3.11-2-6.12-3.9-9-5.38-.72-.36-1.43-.73-2.13-1s-1.36-.58-2-.83a15,15,0,0,0-3.47-.79,5.09,5.09,0,0,0-2.23.19,5.76,5.76,0,0,0-1.77.92,6.61,6.61,0,0,1-.55.37l-.85.76L457,607.1l-1.66,1.59c-.56.53-1,1.13-1.55,1.66a16.44,16.44,0,0,0-1.47,1.7c-.23.29-.47.58-.73.86s-.43.6-.66.89a20.76,20.76,0,0,0-1.27,1.83,17.76,17.76,0,0,0-1.17,1.9,28.12,28.12,0,0,0-3.26,8.48,20.08,20.08,0,0,0-.35,2.38c-.05.41,0,.8,0,1.22a12.08,12.08,0,0,0,0,1.27l.1,1.3c0,.45.18.84.25,1.3a17,17,0,0,0,.8,2.77l-.64.71a17,17,0,0,1-5.21-10.26,26.26,26.26,0,0,1,1.11-11.51,35.58,35.58,0,0,1,5.33-10.25c.6-.76,1.14-1.56,1.79-2.28l1.94-2.14c.66-.7,1.39-1.33,2.09-2l1.06-1,1.19-.91a13.65,13.65,0,0,1,11.52-2.12,27.32,27.32,0,0,1,10.27,5.4,69.54,69.54,0,0,1,15,17.22Z" transform="translate(-49.18 -23.26)"/>
    <path class="cls-1" d="M503.15,681.5c-.9,2.66-1.89,5.23-2.83,7.79L499,693.17l-.64,1.92-.58,1.94-1.15,3.84c-.34,1.29-.63,2.6-.95,3.88l-.52,1.91c-.17.64-.28,1.29-.43,1.93l-.82,3.85a134,134,0,0,0-1.81,15.35l-.1,1.9,0,1.89c0,1.26,0,2.5,0,3.74,0,.62.05,1.23.08,1.84s.06,1.22.13,1.81.11,1.19.19,1.74l.11.82c0,.22.08.58.1.59l-11.34-5.9,1.42-.73,1.32-.64c.87-.42,1.75-.81,2.63-1.19,1.76-.76,3.55-1.48,5.39-2.09a61.82,61.82,0,0,1,11.65-2.82,36.48,36.48,0,0,1,13.53.57,24,24,0,0,1,7.29,3.22,22.94,22.94,0,0,1,6,5.83l5.14,7.24-7.5,4.83-2,1.27c-.69.45-1.38.92-2.06,1.4-1.37,1-2.71,1.94-4,3a75.75,75.75,0,0,0-7.39,6.26,30.05,30.05,0,0,0-5.34,6.38,10.18,10.18,0,0,0-.67,1.31,1.59,1.59,0,0,1-.12.25c0-.09,0-.11,0-.28a4.33,4.33,0,0,0-.3-1.29,3.79,3.79,0,0,0-.94-1.34c-.35-.29-.53-.35-.61-.34s.23.27.74.44a24,24,0,0,0,4.23.86c1.63.23,3.35.4,5.12.55,3.53.31,7.19.45,10.91,1A55.44,55.44,0,0,1,537,772.13a21.28,21.28,0,0,1,5.39,2.6,9.5,9.5,0,0,1,3.73,4.68l-.83.47a8.36,8.36,0,0,0-3.81-3.26,19.63,19.63,0,0,0-5-1.46,59.91,59.91,0,0,0-10.65-.58c-3.58.07-7.17.24-10.78.35a53.78,53.78,0,0,1-10.94-.44,10.6,10.6,0,0,1-2.77-.91,4.33,4.33,0,0,1-2.19-2.34,5.18,5.18,0,0,1,0-3.11,15.87,15.87,0,0,1,.93-2.68,34.49,34.49,0,0,1,6.32-9,80.08,80.08,0,0,1,8-7.43,107.6,107.6,0,0,1,8.76-6.48l-.25,1.3a13.77,13.77,0,0,0-8-5.26,27.62,27.62,0,0,0-10-.44,56,56,0,0,0-10,2.2,74.15,74.15,0,0,0-9.59,3.73l-1.1.52-.12-1.16a70.62,70.62,0,0,1,.48-16.61,104.35,104.35,0,0,1,3.57-16.14l1.32-3.92c.23-.65.43-1.31.68-2l.77-1.92c.53-1.27,1-2.56,1.58-3.82l1.77-3.73.88-1.86,1-1.81,2-3.62c1.37-2.38,2.88-4.68,4.32-7Z" transform="translate(-49.18 -23.26)"/>
    <path class="cls-1" d="M625.19,673.86a.32.32,0,0,0-.1.21c0,.09,0,.16,0,.11l-.09-.1-.17-.19-.36-.38-.7-.76q-.71-.75-1.45-1.46c-1-1-1.91-1.9-2.93-2.77s-2-1.72-3-2.54-2-1.59-3.09-2.33-2.09-1.44-3.15-2.11-2.14-1.27-3.2-1.88a56.61,56.61,0,0,0-6.58-3c-1.11-.43-2.22-.82-3.34-1.18s-2.25-.65-3.39-.91a54.76,54.76,0,0,0-6.86-1.2c-1.16-.11-2.31-.24-3.48-.25-.59,0-1.16-.09-1.75-.08h-1.76c-2.35,0-4.72.19-7.09.37l7.59-6.7,0-.06v.06l0,.13,0,.35c0,.25-.05.51-.07.78,0,.54,0,1.1-.07,1.66a24,24,0,0,0,.15,3.32,19.14,19.14,0,0,0,1.67,5.89,15.25,15.25,0,0,0,3.53,4.72,22.58,22.58,0,0,0,5.73,3.74c4.51,2.14,10.12,3.41,16,4.3.73.09,1.47.23,2.21.34s1.49.17,2.24.25c1.51.2,3,.37,4.56.51l2.32.25,1.17.12.9.14A23.44,23.44,0,0,0,625.19,673.86Zm.84.45c-1.55.36-3.17.75-4.82,1.07l-1.23.23-1.15.16-2.31.33c-1.53.25-3.08.38-4.63.52-.77.07-1.55.16-2.32.2l-2.33.1a54.36,54.36,0,0,1-18.57-2.2,29.48,29.48,0,0,1-8.47-4.28,23.15,23.15,0,0,1-6.32-7.16,25.9,25.9,0,0,1-3-9.05,29.56,29.56,0,0,1,.16-9.55l.13-.67.7-.06a63.57,63.57,0,0,1,16.48.71,51.77,51.77,0,0,1,8,2.12,48,48,0,0,1,7.56,3.36,51.19,51.19,0,0,1,13,10.12,54.36,54.36,0,0,1,5.12,6.46c.78,1.13,1.5,2.31,2.18,3.5q.51.89,1,1.81l.46.93.22.47.11.24.05.12a.78.78,0,0,1,.06.21A.72.72,0,0,1,626,674.31Z" transform="translate(-49.18 -23.26)"/>
    <path class="cls-1" d="M705.52,726.86a104.39,104.39,0,0,1-14.21.62A106.75,106.75,0,0,1,677,726.3c-1.2-.19-2.41-.44-3.63-.68a36.36,36.36,0,0,1-3.76-1.07,13.69,13.69,0,0,1-2-.8l-1.07-.54-.27-.14-.13-.07-.05,0-.17-.08a2.18,2.18,0,0,0-1.23-.19,4.94,4.94,0,0,0-2.95,1.59,5.6,5.6,0,0,0-1.08,1.5,2.19,2.19,0,0,0-.27,1c0,.12-.06,0,0,.12a8,8,0,0,0,1.59,1c1.75,1,3.86,1.85,5.95,2.79,4.2,1.87,8.55,3.77,12.77,6a62.51,62.51,0,0,1,12.16,8.07,23.76,23.76,0,0,1,4.88,5.77,9.26,9.26,0,0,1,1.16,7.27,8.27,8.27,0,0,0-1.17-3.19,11.18,11.18,0,0,0-.95-1.31c-.4-.38-.72-.8-1.15-1.14a26.12,26.12,0,0,0-5.46-3.56,101.21,101.21,0,0,0-12.49-5c-4.31-1.49-8.68-2.91-13.13-4.5-2.24-.81-4.45-1.65-6.87-2.79-.3-.13-.6-.3-.93-.48s-.61-.32-1-.57l-.52-.34a5.55,5.55,0,0,1-.57-.41,9.41,9.41,0,0,1-1.2-1.07,9.59,9.59,0,0,1-1.89-2.83,9.78,9.78,0,0,1-.78-3.33,11.62,11.62,0,0,1,1.29-5.71,14.37,14.37,0,0,1,3.06-4.09,14.79,14.79,0,0,1,4.22-2.78,12.08,12.08,0,0,1,5.33-1.06,11.12,11.12,0,0,1,5.44,1.6l.59.37.14.09.06,0,.12.07c.16.09.31.19.47.3a6.67,6.67,0,0,0,1.17.63,50.59,50.59,0,0,0,6,2.26C687.36,721.75,696.48,723.94,705.52,726.86Z" transform="translate(-49.18 -23.26)"/>
  </g>
  <g id="text">
    <text class="cls-3" transform="translate(180.43 989.57)">Ontario Summer</text>
  </g>
</svg>
